<?xml version="1.0" encoding="UTF-8" ?>
<!DOCTYPE svg PUBLIC "-//W3C//DTD SVG 1.1//EN" "http://www.w3.org/Graphics/SVG/1.1/DTD/svg11.dtd">
<svg width="400pt" height="400pt" viewBox="0 0 400 400" version="1.1" xmlns="http://www.w3.org/2000/svg">
<g id="#ffffffff">
<path fill="#ffffff" opacity="1.00" d=" M 0.00 0.00 L 400.00 0.00 L 400.00 400.00 L 368.05 400.00 C 367.94 396.87 368.29 393.73 367.32 390.74 C 365.55 380.12 363.96 369.25 358.01 359.99 C 356.57 356.54 352.60 355.28 349.68 353.40 C 328.80 348.56 307.99 343.27 287.64 336.50 C 281.15 334.46 274.34 332.97 268.39 329.61 C 261.54 319.57 253.34 310.66 244.79 302.08 C 241.18 299.62 242.54 294.44 239.18 291.78 C 239.04 290.45 238.92 289.13 238.82 287.81 C 238.86 286.09 238.82 284.36 238.76 282.64 C 244.06 273.44 248.58 263.82 253.28 254.30 C 255.76 249.33 256.54 243.79 257.25 238.34 C 260.82 237.62 266.47 236.68 264.07 230.98 C 263.89 220.02 267.80 209.73 273.66 200.65 C 274.14 193.13 274.26 185.58 273.93 178.06 C 273.56 174.19 266.01 174.81 266.06 179.07 C 264.92 179.44 261.76 188.41 261.75 182.85 C 266.23 172.46 266.99 161.17 269.23 150.23 C 270.50 138.49 270.47 126.49 269.29 114.75 C 268.26 108.89 260.93 106.02 261.63 99.35 C 260.44 96.84 256.18 99.28 255.69 96.27 C 252.94 89.85 249.49 82.05 242.25 79.78 C 237.51 78.63 232.61 79.05 227.80 79.13 C 218.33 77.01 208.83 75.09 199.23 73.73 C 193.16 73.16 186.70 71.95 180.72 73.70 C 164.47 77.32 147.97 84.10 136.35 96.32 C 133.36 107.76 129.83 119.10 127.76 130.77 C 127.18 133.57 126.58 136.52 127.68 139.26 C 131.41 154.86 133.92 170.80 139.42 185.94 C 139.10 186.17 138.44 186.64 138.12 186.87 C 135.15 183.49 133.99 178.27 129.72 176.26 C 128.17 175.81 126.01 175.53 125.16 177.27 C 125.00 184.80 124.62 192.39 125.13 199.92 C 127.25 205.22 131.27 209.70 132.58 215.37 C 134.99 222.60 132.21 230.88 136.31 237.62 C 137.53 237.92 139.96 238.52 141.18 238.81 C 142.52 246.42 145.72 253.99 148.75 261.29 C 152.05 266.50 155.34 271.85 157.34 277.72 C 157.11 282.36 157.08 287.03 156.85 291.68 C 154.67 294.39 156.30 298.96 153.05 300.75 C 152.26 301.30 151.53 301.93 150.89 302.65 C 142.51 310.76 135.88 320.46 128.21 329.17 C 126.57 331.34 123.67 331.40 121.38 332.50 C 97.69 340.76 73.35 347.00 49.03 353.11 C 41.84 354.18 37.62 360.95 35.18 367.15 C 30.86 377.55 30.36 388.97 28.88 400.00 L 0.00 400.00 L 0.00 0.00 Z" />
</g>
<g id="#cacacaff">
<path fill="#cacaca" opacity="1.00" d=" M 180.72 73.70 C 186.70 71.95 193.16 73.16 199.23 73.73 C 193.06 73.97 186.88 74.05 180.72 73.70 Z" />
<path fill="#cacaca" opacity="1.00" d=" M 158.26 279.67 C 160.97 281.70 162.20 285.08 164.00 287.86 C 166.90 296.96 176.80 300.98 182.25 307.89 C 174.90 308.02 167.53 308.22 160.18 307.91 C 160.21 303.44 159.34 299.06 158.26 294.75 C 158.16 294.08 157.95 292.75 157.85 292.08 C 157.96 287.93 158.10 283.80 158.26 279.67 Z" />
</g>
<g id="#8f8f8fff">
<path fill="#8f8f8f" opacity="1.00" d=" M 136.35 96.32 C 147.97 84.10 164.47 77.32 180.72 73.70 C 186.88 74.05 193.06 73.97 199.23 73.73 C 208.83 75.09 218.33 77.01 227.80 79.13 C 232.52 80.31 237.43 80.04 242.25 79.78 C 249.49 82.05 252.94 89.85 255.69 96.27 C 256.18 99.28 260.44 96.84 261.63 99.35 C 260.93 106.02 268.26 108.89 269.29 114.75 C 268.95 126.57 268.73 138.41 269.23 150.23 C 266.99 161.17 266.23 172.46 261.75 182.85 C 260.49 186.01 259.36 189.22 257.99 192.34 C 257.67 190.70 257.02 187.43 256.69 185.79 C 256.87 184.27 257.05 182.75 257.22 181.23 C 258.22 176.13 258.20 170.87 257.27 165.77 C 255.75 155.80 254.79 145.44 253.22 135.76 C 245.03 133.59 236.28 132.21 227.96 129.97 C 231.03 134.56 234.51 138.84 238.05 143.07 C 231.45 141.30 225.41 137.97 218.91 135.94 C 219.46 139.71 222.82 142.10 225.22 144.76 C 226.80 146.54 230.63 149.85 222.14 146.76 C 204.38 143.09 186.64 139.06 169.87 132.01 C 170.78 134.41 172.48 136.46 173.12 138.98 C 164.50 137.22 156.51 133.31 148.04 131.04 L 147.06 130.87 C 146.96 135.32 147.01 139.78 147.22 144.23 C 145.76 152.08 143.21 159.75 142.76 167.77 C 142.18 172.52 141.19 177.57 142.68 182.26 C 142.93 184.10 143.12 185.95 143.31 187.79 C 143.02 189.41 142.43 192.63 142.14 194.24 C 141.23 191.48 140.17 188.76 139.42 185.94 C 133.92 170.80 131.41 154.86 127.68 139.26 C 127.72 136.43 127.75 133.60 127.76 130.77 C 129.83 119.10 133.36 107.76 136.35 96.32 Z" />
</g>
<g id="#b9b9b9ff">
<path fill="#b9b9b9" opacity="1.00" d=" M 227.80 79.13 C 232.61 79.05 237.51 78.63 242.25 79.78 C 237.43 80.04 232.52 80.31 227.80 79.13 Z" />
</g>
<g id="#e4e4e4ff">
<path fill="#e4e4e4" opacity="1.00" d=" M 269.29 114.75 C 270.47 126.49 270.50 138.49 269.23 150.23 C 268.73 138.41 268.95 126.57 269.29 114.75 Z" />
</g>
<g id="#dbdbdbff">
<path fill="#dbdbdb" opacity="1.00" d=" M 227.96 129.97 C 236.28 132.21 245.03 133.59 253.22 135.76 C 254.79 145.44 255.75 155.80 257.27 165.77 C 257.12 170.91 256.89 176.08 257.22 181.23 C 257.05 182.75 256.87 184.27 256.69 185.79 C 256.23 188.90 255.86 192.07 256.10 195.22 C 256.95 194.42 257.73 193.51 257.99 192.34 C 259.36 189.22 260.49 186.01 261.75 182.85 C 261.76 188.41 264.92 179.44 266.06 179.07 C 266.01 174.81 273.56 174.19 273.93 178.06 C 274.26 185.58 274.14 193.13 273.66 200.65 C 267.80 209.73 263.89 220.02 264.07 230.98 C 266.47 236.68 260.82 237.62 257.25 238.34 C 256.54 243.79 255.76 249.33 253.28 254.30 C 248.58 263.82 244.06 273.44 238.76 282.64 C 236.64 283.65 236.21 286.16 235.17 288.04 C 227.12 296.17 219.23 305.55 207.69 308.69 C 198.23 312.02 187.57 309.51 180.30 302.70 C 173.30 299.52 169.41 292.86 164.00 287.86 C 162.20 285.08 160.97 281.70 158.26 279.67 C 158.03 279.18 157.57 278.21 157.34 277.72 C 155.34 271.85 152.05 266.50 148.75 261.29 C 145.72 253.99 142.52 246.42 141.18 238.81 C 139.96 238.52 137.53 237.92 136.31 237.62 C 132.21 230.88 134.99 222.60 132.58 215.37 C 131.27 209.70 127.25 205.22 125.13 199.92 C 124.62 192.39 125.00 184.80 125.16 177.27 C 126.01 175.53 128.17 175.81 129.72 176.26 C 133.99 178.27 135.15 183.49 138.12 186.87 C 138.44 186.64 139.10 186.17 139.42 185.94 C 140.17 188.76 141.23 191.48 142.14 194.24 C 142.69 196.79 145.68 203.39 143.81 193.07 C 143.68 191.75 143.44 189.11 143.31 187.79 C 143.12 185.95 142.93 184.10 142.68 182.26 C 142.86 177.43 143.02 172.60 142.76 167.77 C 143.21 159.75 145.76 152.08 147.22 144.23 C 148.06 139.88 147.99 135.45 148.04 131.04 C 156.51 133.31 164.50 137.22 173.12 138.98 C 172.48 136.46 170.78 134.41 169.87 132.01 C 186.64 139.06 204.38 143.09 222.14 146.76 C 230.63 149.85 226.80 146.54 225.22 144.76 C 222.82 142.10 219.46 139.71 218.91 135.94 C 225.41 137.97 231.45 141.30 238.05 143.07 C 234.51 138.84 231.03 134.56 227.96 129.97 Z" />
<path fill="#dbdbdb" opacity="1.00" d=" M 153.05 300.75 C 156.30 298.96 154.67 294.39 156.85 291.68 C 157.32 299.05 156.78 306.40 156.25 313.74 C 156.39 318.68 155.27 323.82 156.34 328.70 C 158.37 332.56 160.69 336.29 163.26 339.82 C 167.11 339.87 170.97 339.96 174.82 340.11 C 176.83 342.26 174.93 345.92 177.22 347.89 C 189.21 347.83 201.49 349.17 213.03 346.19 C 218.93 345.67 225.85 345.88 231.18 343.20 C 231.02 337.83 236.46 336.04 238.48 331.79 C 238.31 329.80 237.97 327.83 237.79 325.84 C 242.86 320.24 241.70 311.39 239.21 304.76 C 238.91 300.43 239.67 296.10 239.18 291.78 C 242.54 294.44 241.18 299.62 244.79 302.08 C 244.38 302.07 243.57 302.06 243.16 302.06 C 250.15 317.70 251.85 334.96 254.34 351.73 C 254.28 354.55 254.25 357.39 254.25 360.23 C 253.16 367.07 251.51 373.84 248.99 380.30 C 242.36 373.84 237.85 365.05 230.08 359.85 C 222.73 358.83 219.13 367.70 212.28 368.39 C 208.18 368.15 204.08 368.01 199.98 367.98 C 197.20 367.97 194.39 367.80 191.73 368.71 C 183.95 371.48 178.35 365.43 172.76 361.25 C 171.04 359.41 167.84 359.55 165.93 361.05 C 159.57 366.37 154.22 372.74 149.45 379.50 C 149.05 379.75 148.26 380.25 147.86 380.49 C 145.69 374.55 144.43 368.34 142.67 362.28 C 142.78 358.11 142.87 353.94 142.92 349.79 L 143.07 348.99 C 144.75 346.70 144.96 344.35 143.70 341.93 C 145.29 329.39 147.67 316.80 152.43 305.04 C 153.23 303.80 154.81 301.95 153.05 300.75 Z" />
<path fill="#dbdbdb" opacity="1.00" d=" M 367.32 390.74 C 368.29 393.73 367.94 396.87 368.05 400.00 L 366.98 400.00 C 367.06 396.91 367.17 393.79 367.32 390.74 Z" />
</g>
<g id="#d8d8d8ff">
<path fill="#d8d8d8" opacity="1.00" d=" M 127.68 139.26 C 126.58 136.52 127.18 133.57 127.76 130.77 C 127.75 133.60 127.72 136.43 127.68 139.26 Z" />
<path fill="#d8d8d8" opacity="1.00" d=" M 156.25 313.74 C 156.43 321.13 157.54 328.50 163.11 333.94 C 172.55 334.49 181.98 331.90 191.42 333.40 C 193.84 338.34 200.33 335.35 204.58 335.71 C 210.71 327.01 222.24 332.67 230.97 331.99 C 238.31 335.58 234.49 328.11 237.79 325.84 C 237.97 327.83 238.31 329.80 238.48 331.79 C 236.46 336.04 231.02 337.83 231.18 343.20 C 225.85 345.88 218.93 345.67 213.03 346.19 C 201.49 349.17 189.21 347.83 177.22 347.89 C 174.93 345.92 176.83 342.26 174.82 340.11 C 170.97 339.96 167.11 339.87 163.26 339.82 C 160.69 336.29 158.37 332.56 156.34 328.70 C 155.27 323.82 156.39 318.68 156.25 313.74 Z" />
</g>
<g id="#b3b3b3ff">
<path fill="#b3b3b3" opacity="1.00" d=" M 147.06 130.87 L 148.04 131.04 C 147.99 135.45 148.06 139.88 147.22 144.23 C 147.01 139.78 146.96 135.32 147.06 130.87 Z" />
</g>
<g id="#b0b0b0ff">
<path fill="#b0b0b0" opacity="1.00" d=" M 257.27 165.77 C 258.20 170.87 258.22 176.13 257.22 181.23 C 256.89 176.08 257.12 170.91 257.27 165.77 Z" />
</g>
<g id="#b7b7b7ff">
<path fill="#b7b7b7" opacity="1.00" d=" M 142.68 182.26 C 141.19 177.57 142.18 172.52 142.76 167.77 C 143.02 172.60 142.86 177.43 142.68 182.26 Z" />
</g>
<g id="#aeaeaeff">
<path fill="#aeaeae" opacity="1.00" d=" M 256.10 195.22 C 255.86 192.07 256.23 188.90 256.69 185.79 C 257.02 187.43 257.67 190.70 257.99 192.34 C 257.73 193.51 256.95 194.42 256.10 195.22 Z" />
</g>
<g id="#b4b4b4ff">
<path fill="#b4b4b4" opacity="1.00" d=" M 143.31 187.79 C 143.44 189.11 143.68 191.75 143.81 193.07 C 145.68 203.39 142.69 196.79 142.14 194.24 C 142.43 192.63 143.02 189.41 143.31 187.79 Z" />
</g>
<g id="#eaeaeaff">
<path fill="#eaeaea" opacity="1.00" d=" M 157.34 277.72 C 157.57 278.21 158.03 279.18 158.26 279.67 C 158.10 283.80 157.96 287.93 157.85 292.08 L 156.85 291.68 C 157.08 287.03 157.11 282.36 157.34 277.72 Z" />
</g>
<g id="#ccccccff">
<path fill="#cccccc" opacity="1.00" d=" M 235.17 288.04 C 236.21 286.16 236.64 283.65 238.76 282.64 C 238.82 284.36 238.86 286.09 238.82 287.81 C 236.17 294.21 237.92 300.87 237.78 307.48 C 234.91 307.83 234.67 310.72 233.75 312.91 C 231.27 311.60 229.42 308.86 226.01 310.02 C 224.13 310.01 223.24 312.61 221.17 311.98 C 220.09 309.98 218.10 307.16 220.13 305.15 C 224.45 298.96 232.88 295.68 235.17 288.04 Z" />
<path fill="#cccccc" opacity="1.00" d=" M 149.45 379.50 C 154.22 372.74 159.57 366.37 165.93 361.05 C 167.40 362.86 168.82 364.72 170.08 366.69 C 162.52 369.60 156.76 375.51 151.25 381.22 C 150.03 382.13 150.03 383.70 149.78 385.07 C 149.05 383.58 148.44 382.04 147.86 380.49 C 148.26 380.25 149.05 379.75 149.45 379.50 Z" />
</g>
<g id="#d1d1d1ff">
<path fill="#d1d1d1" opacity="1.00" d=" M 164.00 287.86 C 169.41 292.86 173.30 299.52 180.30 302.70 C 187.57 309.51 198.23 312.02 207.69 308.69 C 219.23 305.55 227.12 296.17 235.17 288.04 C 232.88 295.68 224.45 298.96 220.13 305.15 C 218.10 307.16 220.09 309.98 221.17 311.98 C 223.24 312.61 224.13 310.01 226.01 310.02 C 229.42 308.86 231.27 311.60 233.75 312.91 C 234.67 310.72 234.91 307.83 237.78 307.48 C 237.92 300.87 236.17 294.21 238.82 287.81 C 238.92 289.13 239.04 290.45 239.18 291.78 C 239.67 296.10 238.91 300.43 239.21 304.76 C 238.32 310.13 240.39 317.71 235.77 321.85 C 232.50 321.29 229.25 320.68 226.01 320.01 C 221.47 322.03 214.85 324.05 210.81 320.12 C 207.95 319.43 206.29 323.84 202.97 321.84 C 192.31 322.27 181.62 323.70 170.99 322.15 C 166.92 320.59 161.54 324.57 158.10 321.77 C 158.01 312.75 158.70 303.77 158.26 294.75 C 159.34 299.06 160.21 303.44 160.18 307.91 C 167.53 308.22 174.90 308.02 182.25 307.89 C 176.80 300.98 166.90 296.96 164.00 287.86 Z" />
</g>
<g id="#d4d4d4ff">
<path fill="#d4d4d4" opacity="1.00" d=" M 156.85 291.68 L 157.85 292.08 C 157.95 292.75 158.16 294.08 158.26 294.75 C 158.70 303.77 158.01 312.75 158.10 321.77 C 161.54 324.57 166.92 320.59 170.99 322.15 C 181.62 323.70 192.31 322.27 202.97 321.84 C 206.29 323.84 207.95 319.43 210.81 320.12 C 214.85 324.05 221.47 322.03 226.01 320.01 C 229.25 320.68 232.50 321.29 235.77 321.85 C 240.39 317.71 238.32 310.13 239.21 304.76 C 241.70 311.39 242.86 320.24 237.79 325.84 C 234.49 328.11 238.31 335.58 230.97 331.99 C 222.24 332.67 210.71 327.01 204.58 335.71 C 200.33 335.35 193.84 338.34 191.42 333.40 C 181.98 331.90 172.55 334.49 163.11 333.94 C 157.54 328.50 156.43 321.13 156.25 313.74 C 156.78 306.40 157.32 299.05 156.85 291.68 Z" />
</g>
<g id="#b2b2b2ff">
<path fill="#b2b2b2" opacity="1.00" d=" M 150.89 302.65 C 151.53 301.93 152.26 301.30 153.05 300.75 C 154.81 301.95 153.23 303.80 152.43 305.04 C 152.04 304.44 151.27 303.25 150.89 302.65 Z" />
</g>
<g id="#7e7e7eff">
<path fill="#7e7e7e" opacity="1.00" d=" M 243.16 302.06 C 243.57 302.06 244.38 302.07 244.79 302.08 C 253.34 310.66 261.54 319.57 268.39 329.61 C 274.34 332.97 281.15 334.46 287.64 336.50 C 307.99 343.27 328.80 348.56 349.68 353.40 C 352.60 355.28 356.57 356.54 358.01 359.99 C 363.96 369.25 365.55 380.12 367.32 390.74 C 367.17 393.79 367.06 396.91 366.98 400.00 L 292.08 400.00 C 292.59 389.40 289.35 379.28 286.68 369.18 C 286.23 369.13 285.33 369.03 284.88 368.98 C 285.31 372.40 287.47 375.38 286.80 379.01 C 286.44 385.50 289.02 391.54 289.93 397.86 C 286.72 398.75 281.82 396.51 279.56 400.00 L 239.73 400.00 C 241.89 394.50 245.47 389.72 247.45 384.15 C 248.01 382.88 248.55 381.61 248.99 380.30 C 251.51 373.84 253.16 367.07 254.25 360.23 C 254.79 357.38 255.36 354.50 254.34 351.73 C 251.85 334.96 250.15 317.70 243.16 302.06 Z" />
<path fill="#7e7e7e" opacity="1.00" d=" M 128.21 329.17 C 135.88 320.46 142.51 310.76 150.89 302.65 C 151.27 303.25 152.04 304.44 152.43 305.04 C 147.67 316.80 145.29 329.39 143.70 341.93 C 142.38 344.23 142.17 346.58 143.07 348.99 L 142.92 349.79 C 142.03 353.81 141.27 358.25 142.67 362.28 C 144.43 368.34 145.69 374.55 147.86 380.49 C 148.44 382.04 149.05 383.58 149.78 385.07 C 152.01 390.20 154.80 395.04 157.37 400.00 L 117.45 400.00 C 114.51 397.53 110.56 398.33 107.02 397.81 C 106.68 388.90 109.98 380.52 110.98 371.84 C 107.50 373.75 108.32 378.55 106.76 381.71 C 105.48 387.68 103.50 393.84 104.75 400.00 L 28.88 400.00 C 30.36 388.97 30.86 377.55 35.18 367.15 C 37.62 360.95 41.84 354.18 49.03 353.11 C 73.35 347.00 97.69 340.76 121.38 332.50 C 123.67 331.40 126.57 331.34 128.21 329.17 Z" />
<path fill="#7e7e7e" opacity="1.00" d=" M 165.93 361.05 C 167.84 359.55 171.04 359.41 172.76 361.25 C 178.35 365.43 183.95 371.48 191.73 368.71 C 194.49 368.85 197.25 368.94 200.02 369.00 C 204.08 368.90 208.25 369.21 212.28 368.39 C 219.13 367.70 222.73 358.83 230.08 359.85 C 232.23 362.93 228.04 365.16 226.80 367.72 C 223.10 371.53 219.30 375.52 217.68 380.70 C 214.77 386.74 208.53 392.79 212.05 400.00 L 183.06 400.00 C 182.72 396.58 184.17 392.35 181.30 389.71 C 177.70 385.83 178.14 380.12 176.57 375.35 C 174.46 372.41 172.17 369.63 170.08 366.69 C 168.82 364.72 167.40 362.86 165.93 361.05 Z" />
</g>
<g id="#b8b8b8ff">
<path fill="#b8b8b8" opacity="1.00" d=" M 143.07 348.99 C 142.17 346.58 142.38 344.23 143.70 341.93 C 144.96 344.35 144.75 346.70 143.07 348.99 Z" />
</g>
<g id="#999999ff">
<path fill="#999999" opacity="1.00" d=" M 142.67 362.28 C 141.27 358.25 142.03 353.81 142.92 349.79 C 142.87 353.94 142.78 358.11 142.67 362.28 Z" />
</g>
<g id="#939393ff">
<path fill="#939393" opacity="1.00" d=" M 254.34 351.73 C 255.36 354.50 254.79 357.38 254.25 360.23 C 254.25 357.39 254.28 354.55 254.34 351.73 Z" />
</g>
<g id="#cdcdcdff">
<path fill="#cdcdcd" opacity="1.00" d=" M 230.08 359.85 C 237.85 365.05 242.36 373.84 248.99 380.30 C 248.55 381.61 248.01 382.88 247.45 384.15 C 246.86 380.76 243.44 379.84 241.82 377.20 C 239.50 373.84 235.51 372.22 232.74 369.28 C 231.29 367.54 228.78 368.10 226.80 367.72 C 228.04 365.16 232.23 362.93 230.08 359.85 Z" />
</g>
<g id="#dadadaff">
<path fill="#dadada" opacity="1.00" d=" M 151.25 381.22 C 156.76 375.51 162.52 369.60 170.08 366.69 C 172.17 369.63 174.46 372.41 176.57 375.35 C 178.14 380.12 177.70 385.83 181.30 389.71 C 184.17 392.35 182.72 396.58 183.06 400.00 L 157.37 400.00 C 154.80 395.04 152.01 390.20 149.78 385.07 C 150.03 383.70 150.03 382.13 151.25 381.22 Z" />
<path fill="#dadada" opacity="1.00" d=" M 217.68 380.70 C 219.30 375.52 223.10 371.53 226.80 367.72 C 228.78 368.10 231.29 367.54 232.74 369.28 C 235.51 372.22 239.50 373.84 241.82 377.20 C 243.44 379.84 246.86 380.76 247.45 384.15 C 245.47 389.72 241.89 394.50 239.73 400.00 L 212.05 400.00 C 208.53 392.79 214.77 386.74 217.68 380.70 Z" />
</g>
<g id="#c7c7c7ff">
<path fill="#c7c7c7" opacity="1.00" d=" M 191.73 368.71 C 194.39 367.80 197.20 367.97 199.98 367.98 L 200.02 369.00 C 197.25 368.94 194.49 368.85 191.73 368.71 Z" />
</g>
<g id="#afafafff">
<path fill="#afafaf" opacity="1.00" d=" M 199.98 367.98 C 204.08 368.01 208.18 368.15 212.28 368.39 C 208.25 369.21 204.08 368.90 200.02 369.00 L 199.98 367.98 Z" />
</g>
<g id="#767676ff">
<path fill="#767676" opacity="1.00" d=" M 284.88 368.98 C 285.33 369.03 286.23 369.13 286.68 369.18 C 289.35 379.28 292.59 389.40 292.08 400.00 L 279.56 400.00 C 281.82 396.51 286.72 398.75 289.93 397.86 C 289.02 391.54 286.44 385.50 286.80 379.01 C 287.47 375.38 285.31 372.40 284.88 368.98 Z" />
</g>
<g id="#757575ff">
<path fill="#757575" opacity="1.00" d=" M 106.76 381.71 C 108.32 378.55 107.50 373.75 110.98 371.84 C 109.98 380.52 106.68 388.90 107.02 397.81 C 110.56 398.33 114.51 397.53 117.45 400.00 L 104.75 400.00 C 103.50 393.84 105.48 387.68 106.76 381.71 Z" />
</g>
<text transform="matrix(1 0 0 1 120 270)" fill="#8f8f8f" font-family="'Epilogue'" font-size="36px">400 x 400</text>
</svg>
